<svg width="50" height="47" viewBox="0 0 50 47" fill="none" xmlns="http://www.w3.org/2000/svg">
<rect width="49.3898" height="47" fill="#35818E"/>
<path fill-rule="evenodd" clip-rule="evenodd" d="M24.6949 16.9339C27.7898 16.9339 30.2987 14.425 30.2987 11.3302C30.2987 8.23532 27.7898 5.72644 24.6949 5.72644C21.6001 5.72644 19.0912 8.23532 19.0912 11.3302C19.0912 14.425 21.6001 16.9339 24.6949 16.9339ZM28.4308 11.3302C28.4308 13.3934 26.7582 15.066 24.6949 15.066C22.6317 15.066 20.9591 13.3934 20.9591 11.3302C20.9591 9.26694 22.6317 7.59435 24.6949 7.59435C26.7582 7.59435 28.4308 9.26694 28.4308 11.3302ZM20.0251 21.1367C20.0251 21.1341 20.0252 21.1176 20.0408 21.0827C20.0573 21.0457 20.0921 20.9872 20.1615 20.9116C20.3044 20.7563 20.5605 20.566 20.9659 20.3817C21.7749 20.0139 23.0355 19.7358 24.6949 19.7358C26.3544 19.7358 27.6149 20.0139 28.424 20.3817C28.8293 20.566 29.0855 20.7563 29.2283 20.9116C29.2978 20.9872 29.3325 21.0457 29.3491 21.0827C29.3647 21.1176 29.3647 21.1341 29.3647 21.1367L29.3647 22.9609V23.353V23.4431V23.4646V23.4699V23.4712V23.4715V23.4716V23.4716C29.3647 23.9874 29.7829 24.4056 30.2987 24.4056C30.8145 24.4056 31.2326 23.9874 31.2326 23.4716V23.4716V23.4715V23.4712V23.4699V23.4646V23.4431V23.353L31.2326 22.9609V21.1367C31.2326 19.9677 30.2325 19.152 29.197 18.6813C28.0799 18.1735 26.5386 17.8679 24.6949 17.8679C22.8512 17.8679 21.3099 18.1735 20.1929 18.6813C19.1574 19.152 18.1572 19.9677 18.1572 21.1367V21.1436V21.1504V21.1572V21.1641V21.1709V21.1778V21.1846V21.1914V21.1983V21.2051V21.212V21.2188V21.2256V21.2325V21.2393V21.2461V21.253V21.2598V21.2666V21.2735V21.2803V21.2871V21.294V21.3008V21.3076V21.3144V21.3212V21.3281V21.3349V21.3417V21.3485V21.3553V21.3622V21.369V21.3758V21.3826V21.3894V21.3962V21.403V21.4098V21.4166V21.4234V21.4302V21.437V21.4438V21.4505V21.4573V21.4641V21.4709V21.4777V21.4844V21.4912V21.498V21.5047V21.5115V21.5183V21.525V21.5318V21.5385V21.5453V21.552V21.5588V21.5655V21.5722V21.579V21.5857V21.5924V21.5991V21.6059V21.6126V21.6193V21.626V21.6327V21.6394V21.6461V21.6528V21.6595V21.6662V21.6728V21.6795V21.6862V21.6929V21.6995V21.7062V21.7128V21.7195V21.7261V21.7328V21.7394V21.746V21.7527V21.7593V21.7659V21.7725V21.7791V21.7857V21.7923V21.7989V21.8055V21.8121V21.8187V21.8252V21.8318V21.8384V21.8449V21.8515V21.858V21.8645V21.8711V21.8776V21.8841V21.8906V21.8972V21.9037V21.9102V21.9166V21.9231V21.9296V21.9361V21.9426V21.949V21.9555V21.9619V21.9684V21.9748V21.9812V21.9877V21.9941V22.0005V22.0069V22.0133V22.0197V22.026V22.0324V22.0388V22.0452V22.0515V22.0579V22.0642V22.0705V22.0769V22.0832V22.0895V22.0958V22.1021V22.1084V22.1146V22.1209V22.1272V22.1334V22.1397V22.1459V22.1522V22.1584V22.1646V22.1708V22.177V22.1832V22.1894V22.1956V22.2017V22.2079V22.2141V22.2202V22.2263V22.2325V22.2386V22.2447V22.2508V22.2569V22.263V22.269V22.2751V22.2812V22.2872V22.2932V22.2993V22.3053V22.3113V22.3173V22.3233V22.3293V22.3352V22.3412V22.3471V22.3531V22.359V22.3649V22.3709V22.3768V22.3827V22.3885V22.3944V22.4003V22.4061V22.412V22.4178V22.4236V22.4294V22.4352V22.441V22.4468V22.4526V22.4583V22.4641V22.4698V22.4756V22.4813V22.487V22.4927V22.4984V22.504V22.5097V22.5153V22.521V22.5266V22.5322V22.5378V22.5434V22.549V22.5546V22.5601V22.5657V22.5712V22.5768V22.5823V22.5878V22.5933V22.5987V22.6042V22.6097V22.6151V22.6205V22.626V22.6314V22.6368V22.6421V22.6475V22.6529V22.6582V22.6635V22.6689V22.6742V22.6795V22.6847V22.69V22.6953V22.7005V22.7057V22.7109V22.7161V22.7213V22.7265V22.7317V22.7368V22.742V22.7471V22.7522V22.7573V22.7624V22.7674V22.7725V22.7775V22.7826V22.7876V22.7926V22.7976V22.8026V22.8075V22.8125V22.8174V22.8223V22.8272V22.8321V22.837V22.8418V22.8467V22.8515V22.8563V22.8611V22.8659V22.8707V22.8754V22.8802V22.8849V22.8896V22.8943V22.899V22.9037V22.9083V22.913V22.9176V22.9222V22.9268V22.9314V22.9359V22.9405V22.945V22.9495V22.954V22.9585V22.963V22.9674V22.9719V22.9763V22.9807V22.9851V22.9895V22.9938V22.9982V23.0025V23.0068V23.0111V23.0154V23.0196V23.0239V23.0281V23.0323V23.0365V23.0407V23.0448V23.049V23.0531V23.0572V23.0613V23.0654V23.0694V23.0735V23.0775V23.0815V23.0855V23.0895V23.0934V23.0974V23.1013V23.1052V23.1091V23.1129V23.1168V23.1206V23.1244V23.1282V23.132V23.1358V23.1395V23.1432V23.147V23.1506V23.1543V23.158V23.1616V23.1652V23.1688V23.1724V23.176V23.1795V23.183V23.1865V23.19V23.1935V23.1969V23.2004V23.2038V23.2072V23.2105V23.2139V23.2172V23.2206V23.2238V23.2271V23.2304V23.2336V23.2368V23.24V23.2432V23.2464V23.2495V23.2526V23.2558V23.2588V23.2619V23.2649V23.268V23.271V23.2739V23.2769V23.2799V23.2828V23.2857V23.2886V23.2914V23.2943V23.2971V23.2999V23.3027V23.3054V23.3082V23.3109V23.3136V23.3162V23.3189V23.3215V23.3241V23.3267V23.3293V23.3319V23.3344V23.3369V23.3394V23.3418V23.3443V23.3467V23.3491V23.3515V23.3538V23.3562V23.3585V23.3608V23.3631V23.3653V23.3675V23.3697V23.3719V23.3741V23.3762V23.3783V23.3804V23.3825V23.3846V23.3866V23.3886V23.3906V23.3925V23.3945V23.3964V23.3983V23.4001V23.402V23.4038V23.4056V23.4074V23.4091V23.4109V23.4126V23.4143V23.4159V23.4176V23.4192V23.4208V23.4223V23.4239V23.4254V23.4269V23.4284V23.4298V23.4312V23.4327V23.434V23.4354V23.4367V23.438V23.4393V23.4406V23.4418V23.443V23.4442V23.4454V23.4465V23.4476V23.4487V23.4498V23.4508V23.4518V23.4528V23.4538V23.4547V23.4556V23.4565V23.4574V23.4582V23.459V23.4598V23.4606V23.4613V23.462V23.4627V23.4634V23.464V23.4647V23.4652V23.4658V23.4663V23.4669V23.4673V23.4678V23.4682V23.4686V23.469V23.4694V23.4697V23.47V23.4703V23.4705V23.4708V23.471V23.4711V23.4713V23.4714V23.4715V23.4716V23.4716C18.1572 23.9874 18.5754 24.4056 19.0912 24.4056C19.607 24.4056 20.0251 23.9874 20.0251 23.4716V23.4716V23.4715V23.4714V23.4713V23.4711V23.471V23.4708V23.4705V23.4703V23.47V23.4697V23.4694V23.469V23.4686V23.4682V23.4678V23.4673V23.4669V23.4663V23.4658V23.4652V23.4647V23.464V23.4634V23.4627V23.462V23.4613V23.4606V23.4598V23.459V23.4582V23.4574V23.4565V23.4556V23.4547V23.4538V23.4528V23.4518V23.4508V23.4498V23.4487V23.4476V23.4465V23.4454V23.4442V23.443V23.4418V23.4406V23.4393V23.438V23.4367V23.4354V23.434V23.4327V23.4312V23.4298V23.4284V23.4269V23.4254V23.4239V23.4223V23.4208V23.4192V23.4176V23.4159V23.4143V23.4126V23.4109V23.4091V23.4074V23.4056V23.4038V23.402V23.4001V23.3983V23.3964V23.3945V23.3925V23.3906V23.3886V23.3866V23.3846V23.3825V23.3804V23.3783V23.3762V23.3741V23.3719V23.3697V23.3675V23.3653V23.3631V23.3608V23.3585V23.3562V23.3538V23.3515V23.3491V23.3467V23.3443V23.3418V23.3394V23.3369V23.3344V23.3319V23.3293V23.3267V23.3241V23.3215V23.3189V23.3162V23.3136V23.3109V23.3082V23.3054V23.3027V23.2999V23.2971V23.2943V23.2914V23.2886V23.2857V23.2828V23.2799V23.2769V23.2739V23.271V23.268V23.2649V23.2619V23.2588V23.2558V23.2526V23.2495V23.2464V23.2432V23.24V23.2368V23.2336V23.2304V23.2271V23.2238V23.2206V23.2172V23.2139V23.2105V23.2072V23.2038V23.2004V23.1969V23.1935V23.19V23.1865V23.183V23.1795V23.176V23.1724V23.1688V23.1652V23.1616V23.158V23.1543V23.1506V23.147V23.1432V23.1395V23.1358V23.132V23.1282V23.1244V23.1206V23.1168V23.1129V23.1091V23.1052V23.1013V23.0974V23.0934V23.0895V23.0855V23.0815V23.0775V23.0735V23.0694V23.0654V23.0613V23.0572V23.0531V23.049V23.0448V23.0407V23.0365V23.0323V23.0281V23.0239V23.0196V23.0154V23.0111V23.0068V23.0025V22.9982V22.9938V22.9895V22.9851V22.9807V22.9763V22.9719V22.9674V22.963V22.9585V22.954V22.9495V22.945V22.9405V22.9359V22.9314V22.9268V22.9222V22.9176V22.913V22.9083V22.9037V22.899V22.8943V22.8896V22.8849V22.8802V22.8754V22.8707V22.8659V22.8611V22.8563V22.8515V22.8467V22.8418V22.837V22.8321V22.8272V22.8223V22.8174V22.8125V22.8075V22.8026V22.7976V22.7926V22.7876V22.7826V22.7775V22.7725V22.7674V22.7624V22.7573V22.7522V22.7471V22.742V22.7368V22.7317V22.7265V22.7213V22.7161V22.7109V22.7057V22.7005V22.6953V22.69V22.6847V22.6795V22.6742V22.6689V22.6635V22.6582V22.6529V22.6475V22.6421V22.6368V22.6314V22.626V22.6205V22.6151V22.6097V22.6042V22.5987V22.5933V22.5878V22.5823V22.5768V22.5712V22.5657V22.5601V22.5546V22.549V22.5434V22.5378V22.5322V22.5266V22.521V22.5153V22.5097V22.504V22.4984V22.4927V22.487V22.4813V22.4756V22.4698V22.4641V22.4583V22.4526V22.4468V22.441V22.4352V22.4294V22.4236V22.4178V22.412V22.4061V22.4003V22.3944V22.3885V22.3827V22.3768V22.3709V22.3649V22.359V22.3531V22.3471V22.3412V22.3352V22.3293V22.3233V22.3173V22.3113V22.3053V22.2993V22.2932V22.2872V22.2812V22.2751V22.269V22.263V22.2569V22.2508V22.2447V22.2386V22.2325V22.2263V22.2202V22.2141V22.2079V22.2017V22.1956V22.1894V22.1832V22.177V22.1708V22.1646V22.1584V22.1522V22.1459V22.1397V22.1334V22.1272V22.1209V22.1146V22.1084V22.1021V22.0958V22.0895V22.0832V22.0769V22.0705V22.0642V22.0579V22.0515V22.0452V22.0388V22.0324V22.026V22.0197V22.0133V22.0069V22.0005V21.9941V21.9877V21.9812V21.9748V21.9684V21.9619V21.9555V21.949V21.9426V21.9361V21.9296V21.9231V21.9166V21.9102V21.9037V21.8972V21.8906V21.8841V21.8776V21.8711V21.8645V21.858V21.8515V21.8449V21.8384V21.8318V21.8252V21.8187V21.8121V21.8055V21.7989V21.7923V21.7857V21.7791V21.7725V21.7659V21.7593V21.7527V21.746V21.7394V21.7328V21.7261V21.7195V21.7128V21.7062V21.6995V21.6929V21.6862V21.6795V21.6728V21.6662V21.6595V21.6528V21.6461V21.6394V21.6327V21.626V21.6193V21.6126V21.6059V21.5991V21.5924V21.5857V21.579V21.5722V21.5655V21.5588V21.552V21.5453V21.5385V21.5318V21.525V21.5183V21.5115V21.5047V21.498V21.4912V21.4844V21.4777V21.4709V21.4641V21.4573V21.4505V21.4438V21.437V21.4302V21.4234V21.4166V21.4098V21.403V21.3962V21.3894V21.3826V21.3758V21.369V21.3622V21.3553V21.3485V21.3417V21.3349V21.3281V21.3212V21.3144V21.3076V21.3008V21.294V21.2871V21.2803V21.2735V21.2666V21.2598V21.253V21.2461V21.2393V21.2325V21.2256V21.2188V21.212V21.2051V21.1983V21.1914V21.1846V21.1778V21.1709V21.1641V21.1572V21.1504V21.1436V21.1367Z" fill="#ECF0FF"/>
<path d="M18.0363 40.2423C17.4012 40.2423 16.8334 40.1602 16.3328 39.9958C15.8322 39.8314 15.3951 39.596 15.0215 39.2897L15.3577 38.55C15.6192 38.7443 15.8807 38.9087 16.1422 39.0431C16.4112 39.1702 16.6989 39.2673 17.0052 39.3345C17.3115 39.3943 17.6552 39.4242 18.0363 39.4242C18.7013 39.4242 19.1944 39.3009 19.5157 39.0544C19.837 38.8078 19.9976 38.479 19.9976 38.0681C19.9976 37.7169 19.8855 37.4479 19.6614 37.2612C19.4372 37.0744 19.045 36.9249 18.4846 36.8129L17.3078 36.5775C16.5831 36.4281 16.0414 36.1852 15.6827 35.849C15.3316 35.5128 15.156 35.057 15.156 34.4817C15.156 34.011 15.2755 33.6 15.5146 33.2489C15.7612 32.8977 16.1049 32.625 16.5457 32.4307C16.9865 32.2365 17.4983 32.1393 18.0811 32.1393C18.6415 32.1393 19.1533 32.2253 19.6165 32.3971C20.0798 32.5615 20.4758 32.8043 20.8045 33.1256L20.4795 33.8429C20.1284 33.5291 19.7585 33.3049 19.37 33.1704C18.9889 33.0285 18.5556 32.9575 18.0699 32.9575C17.4572 32.9575 16.9716 33.092 16.6129 33.361C16.2618 33.6225 16.0862 33.9811 16.0862 34.4369C16.0862 34.803 16.1983 35.0906 16.4224 35.2998C16.6466 35.5016 17.0164 35.6548 17.532 35.7594L18.7199 35.9947C19.4821 36.1516 20.0424 36.387 20.4011 36.7008C20.7597 37.0146 20.939 37.4554 20.939 38.0233C20.939 38.4566 20.8195 38.8414 20.5804 39.1776C20.3488 39.5139 20.0163 39.7754 19.5829 39.9622C19.1496 40.149 18.634 40.2423 18.0363 40.2423ZM24.4811 40.2423C23.9805 40.2423 23.5434 40.1265 23.1698 39.8949C22.7963 39.6558 22.5049 39.3196 22.2957 38.8862C22.0939 38.4529 21.9931 37.9336 21.9931 37.3284C21.9931 36.7157 22.0939 36.1927 22.2957 35.7594C22.5049 35.326 22.7963 34.9935 23.1698 34.7619C23.5434 34.5303 23.9805 34.4145 24.4811 34.4145C24.9892 34.4145 25.4263 34.5452 25.7924 34.8067C26.166 35.0608 26.4125 35.4082 26.5321 35.849H26.3976L26.5209 34.5153H27.3951C27.3726 34.732 27.3502 34.9524 27.3278 35.1766C27.3129 35.3932 27.3054 35.6062 27.3054 35.8154V40.1415H26.3976V38.819H26.5209C26.4013 39.2598 26.1548 39.6073 25.7812 39.8613C25.4076 40.1153 24.9742 40.2423 24.4811 40.2423ZM24.6604 39.5027C25.1984 39.5027 25.6243 39.3196 25.9381 38.9535C26.2519 38.5799 26.4088 38.0382 26.4088 37.3284C26.4088 36.6111 26.2519 36.0694 25.9381 35.7033C25.6243 35.3297 25.1984 35.1429 24.6604 35.1429C24.1299 35.1429 23.7041 35.3297 23.3828 35.7033C23.069 36.0694 22.9121 36.6111 22.9121 37.3284C22.9121 38.0382 23.069 38.5799 23.3828 38.9535C23.7041 39.3196 24.1299 39.5027 24.6604 39.5027ZM29.0606 40.1415V34.5153H29.9684V40.1415H29.0606ZM28.9485 33.2377V32.2178H30.0693V33.2377H28.9485ZM31.7087 40.1415V35.8714C31.7087 35.6473 31.7012 35.4194 31.6863 35.1878C31.6788 34.9562 31.6639 34.732 31.6415 34.5153H32.5157L32.6277 35.8826L32.4708 35.8938C32.5455 35.5576 32.6763 35.2812 32.8631 35.0645C33.0499 34.8478 33.2703 34.6872 33.5243 34.5826C33.7784 34.4705 34.0436 34.4145 34.3201 34.4145C34.4321 34.4145 34.5293 34.4182 34.6115 34.4257C34.7011 34.4331 34.7833 34.4518 34.858 34.4817L34.8468 35.2886C34.7347 35.2513 34.6301 35.2289 34.533 35.2214C34.4433 35.2065 34.3387 35.199 34.2192 35.199C33.8904 35.199 33.6028 35.2774 33.3562 35.4343C33.1171 35.5912 32.9341 35.793 32.807 36.0395C32.6875 36.2861 32.6277 36.5476 32.6277 36.8241V40.1415H31.7087Z" fill="#ECF0FF"/>
</svg>
